<svg xmlns="http://www.w3.org/2000/svg" xmlns:xlink="http://www.w3.org/1999/xlink" viewBox="0 0 192 108"><defs><style>.a{fill:url(#a);}.b{fill:#daffff;}</style><linearGradient id="a" x1="12.34" y1="6.81" x2="179.68" y2="101.2" gradientUnits="userSpaceOnUse"><stop offset="0" stop-color="#6cc"/><stop offset="0.06" stop-color="#60c3c9"/><stop offset="1" stop-color="#039"/></linearGradient></defs><rect class="a" width="192" height="108" rx="14"/><path class="b" d="M7187.71,7183h-12.37v29.62c.06,5,.2,8.47.4,10.48h-5.33q.32-2.89.4-10.48V7183h-10.62c-2.5.05-4.78.18-6.86.39v-5.07q3.18.35,6.86.4h27.52a60.78,60.78,0,0,0,7-.45v5.18A58,58,0,0,0,7187.71,7183Zm-11.41,10.51,3.19-3.44q6,6.15,12.93,13.87l-3.56,3.81A99.74,99.74,0,0,0,7176.3,7193.48Z" transform="translate(-7103.5 -7145.5)"/><path class="b" d="M7220.22,7219.16a29,29,0,0,0,9.59-8.89,78.74,78.74,0,0,1-3.27-18.73H7216c.69.33,1,.73,1,1.21s-.54.73-1.32.89c-.3.09-.58.41-.85,1l-.31.68h5.56a42.41,42.41,0,0,0,5.3-.42v4.73a35.25,35.25,0,0,0-5.3-.47h-7.35l-.87,1.81c-.65,1.37-1.22,2.5-1.72,3.39h3.23a45.58,45.58,0,0,0-.28-4.57l4.61.71c.71.11,1.11.34,1.2.7s-.12.83-.66,1.4a.24.24,0,0,1-.09.08q-.46.38-.45,1.68h2.48a28.81,28.81,0,0,0,4.57-.47v4.73a33,33,0,0,0-4.57-.42h-2.48v3.34a48.23,48.23,0,0,0,8.6-2.42,31.19,31.19,0,0,0-1.43,5.6q-4,.42-7.17,1v1.19q.07,3.7.4,7.14H7213q.33-3.18.38-7v-.71a61.73,61.73,0,0,0-9.8,2.21l-2.17-5.6a50,50,0,0,0,5.22-.1c1.69-.12,3.94-.38,6.75-.76v-3.92H7210a19.5,19.5,0,0,0-4.15.53l-1.88-4a4.86,4.86,0,0,0,2.85-2.52c.22-.42.59-1.19,1.11-2.29.16-.33.28-.6.38-.79h-.43a41.58,41.58,0,0,0-4.83.47v-4.73a45.94,45.94,0,0,0,5.3.42h1.6q.87-2.31,1.35-3.75H7206a48.76,48.76,0,0,0-5.52.42v-4.89a52.85,52.85,0,0,0,5.52.42h7.51v-3.39h-3.37a52.48,52.48,0,0,0-5.61.45v-4.74c2.6.25,4.47.37,5.61.37h3.37v-1a44.66,44.66,0,0,0-.37-5.23l5.48.71q.9.13.9.81c0,.42-.35.89-1,1.4a3.26,3.26,0,0,0-.61,2.31v1h1.86a47.3,47.3,0,0,0,5.51-.37v4.74a52.93,52.93,0,0,0-5.51-.45h-1.86v3.39h8.53c0-.75,0-1.65,0-2.68v-4.21q0-2.42-.33-6.62l5.59.82c.48.14.73.38.73.73a3,3,0,0,1-1,1.68,1.91,1.91,0,0,0-.47,1.11,18.82,18.82,0,0,0-.12,2.57c0,2.6,0,4.79.05,6.6h6.62a51,51,0,0,0,5.75-.42V7192a52,52,0,0,0-5.75-.42h-6.55a71.52,71.52,0,0,0,2,13.24,52,52,0,0,0,3.46-12.64l4.88,2.08c.74.33,1.11.72,1.12,1.15s-.35.84-1.07,1.19-1.12,1-1.51,2.31a55.41,55.41,0,0,1-5,11.67c1.74,4.38,3,6.58,3.81,6.62q.69.15,1.3-6.15a18.31,18.31,0,0,0,4.45,3.89q-2.56,8.88-5.3,8.51-3.72-.26-7.39-8.25a70.28,70.28,0,0,1-6.56,7.18A26.91,26.91,0,0,0,7220.22,7219.16Zm11.29-39.53,2.9-3.49q4,3.81,6.71,6.62l-3.08,3.89A63.15,63.15,0,0,0,7231.51,7179.63Z" transform="translate(-7103.5 -7145.5)"/></svg>